PathFileType	4	(X/Y/Z)	/home/alexbeat/data/kuopio-gait-dataset/01/mocap/calib_static_markers.trc
DataRate	CameraRate	NumFrames	NumMarkers	Units	OrigDataRate	OrigDataStartFrame	OrigNumFrames
100.000000	100.000000	4	70	mm	100.000000	105	211
Frame#	Time	Pelvis1			Pelvis2			Pelvis3			Pelvis4			Torso1			Torso2			Torso3			Torso4			RFemur1			RFemur2			RFemur3			RFemur4			LFemur1			LFemur2			LFemur3			LFemur4			RTibia1			RTibia2			RTibia3			RTibia4			LTibia1			LTibia2			LTibia3			LTibia4			LFoot1			LFoot2			LFoot3			RFoot1			RFoot2			RFoot3			*30			*31			*32			*33			*34			*35			*36			*37			*38			Pelvis_RFemur_score			Pelvis_LFemur_score			RFemur_RTibia_score			RFemur_RTibia_sara			LFemur_LTibia_score			LFemur_LTibia_sara			RKnee			LKnee			RTibia_RFoot_score			LTibia_LFoot_score			USERMO0			USERMO1			USERMO2			USERMO3			USERMO4			USERMO5			USERMO6			USERMO7			USERMO8			USERMO9			USERMO10			USERMO11			USERMO12			USERMO13			USERMO14			USERMO15			USERMO16			USERMO17			USERMO18			USERMO19			USERMO20			
		X1	Y1	Z1	X2	Y2	Z2	X3	Y3	Z3	X4	Y4	Z4	X5	Y5	Z5	X6	Y6	Z6	X7	Y7	Z7	X8	Y8	Z8	X9	Y9	Z9	X10	Y10	Z10	X11	Y11	Z11	X12	Y12	Z12	X13	Y13	Z13	X14	Y14	Z14	X15	Y15	Z15	X16	Y16	Z16	X17	Y17	Z17	X18	Y18	Z18	X19	Y19	Z19	X20	Y20	Z20	X21	Y21	Z21	X22	Y22	Z22	X23	Y23	Z23	X24	Y24	Z24	X25	Y25	Z25	X26	Y26	Z26	X27	Y27	Z27	X28	Y28	Z28	X29	Y29	Z29	X30	Y30	Z30	X31	Y31	Z31	X32	Y32	Z32	X33	Y33	Z33	X34	Y34	Z34	X35	Y35	Z35	X36	Y36	Z36	X37	Y37	Z37	X38	Y38	Z38	X39	Y39	Z39	X40	Y40	Z40	X41	Y41	Z41	X42	Y42	Z42	X43	Y43	Z43	X44	Y44	Z44	X45	Y45	Z45	X46	Y46	Z46	X47	Y47	Z47	X48	Y48	Z48	X49	Y49	Z49	X50	Y50	Z50	X51	Y51	Z51	X52	Y52	Z52	X53	Y53	Z53	X54	Y54	Z54	X55	Y55	Z55	X56	Y56	Z56	X57	Y57	Z57	X58	Y58	Z58	X59	Y59	Z59	X60	Y60	Z60	X61	Y61	Z61	X62	Y62	Z62	X63	Y63	Z63	X64	Y64	Z64	X65	Y65	Z65	X66	Y66	Z66	X67	Y67	Z67	X68	Y68	Z68	X69	Y69	Z69	X70	Y70	Z70	

106	1.05	306.6013488769531	1027.522216796875	344.8672485351562	225.9615936279297	1030.312744140625	347.4713439941407	227.8850708007812	916.2160034179688	315.5526123046876	297.7102661132812	916.9876098632812	314.0162963867189	262.0888671875	1422.73095703125	502.7276611328126	91.05131530761719	1440.220703125	447.5257263183595	435.4615478515625	1465.196166992188	441.7328491210939	253.7197570800781	1491.221923828125	369.5979614257813	91.13362884521484	647.4303588867188	398.1575012207032	101.3898239135742	545.18994140625	394.1988525390626	89.76105499267578	592.379638671875	422.6203308105469	85.08847808837891	591.5392456054688	459.7847290039062	434.38232421875	668.7945556640625	421.7601013183594	433.5884094238281	632.2120361328125	483.2222595214844	423.4143371582031	563.1265258789062	422.7624511718751	434.5133056640625	634.136962890625	441.2014160156251	93.0538330078125	363.6119995117188	377.2909240722656	97.11907958984375	419.1502380371094	396.4693298339844	92.14804840087891	317.5402221679688	391.6627807617188	109.5784912109375	366.5266418457031	338.8814697265625	426.4142761230469	372.5259704589844	363.5281677246094	432.0960998535156	350.4071350097656	405.1607360839844	424.0020141601562	285.2339172363281	412.8483276367188	424.7382202148438	394.6437072753906	430.1834106445312	335.2818603515625	28.14386940002439	320.4203796386719	377.77783203125	23.25897789001461	555.2786254882812	421.9500427246094	23.20706176757809	505.9518737792969	179.6495971679688	26.46679496765135	331.5353088378906	118.2066192626953	22.26074218749996	561.9760131835938	76.24304962158203	20.99904441833493	505.9652099609375	1498.229248046875	615.0169677734376	-1841.727416992188	1584.318969726562	704.5455322265626	-1909.338134765625	1627.377319335938	662.8469238281251	-1802.720825195312	1628.10302734375	658.2853393554689	-1821.244018554688	-3557.03076171875	994.5538940429688	673.3718872070314	-3551.9091796875	971.559326171875	669.2475585937501	nan	nan	nan	nan	nan	nan	nan	nan	nan	140.0640411376953	903.9276733398438	453.3543090820312	375.6841735839844	892.1922607421875	457.3263549804689	145.2550354003906	461.25341796875	417.3201293945312	244.0153656005859	467.0399475097656	431.9116821289062	364.3177185058594	458.4341125488281	433.1676025390625	264.4380493164062	461.3321533203125	437.1242065429688	145.2550048828125	461.2529907226562	417.3200073242188	364.3179931640625	458.4339904785156	433.1679992675781	223.0052032470703	8.841789245605447	356.7550048828125	373.1454772949219	18.63079833984373	337.5077209472656	-0.8914973735809326	-0.7369849085807799	-1.482357025146484	0.4305411875247955	0.6213876605033875	0.4425990879535676	0.1000000014901161	0.1000000014901161	-0.1000000014901161	0.0002256605657748878	-1.385841608047485	-0.02880255319178112	0.3783366084098816	0.02486997097730634	0.4605503082275391	0.1000000014901161	0.1000000014901161	-0.1000000014901161	-1.074271678924561	-0.6337369084358214	-1.399279952049255	0.4275354743003845	0.3360498547554016	0.3938444256782532	0.1000000014901161	0.1000000014901161	-0.1000000014901161	-0.07613912969827652	-1.898219227790833	-2.507460832595825	0.2534589469432831	0.9914572238922119	0.3359263837337494	0.1000000014901161	0.1000000014901161	-0.1000000014901161	2.463419437408447	-2.238653898239136	0.2034101039171217	0.09417501837015152	0.5949822068214417	0.4050268828868867	0.1000000014901161	0.1000000014901161	-0.1000000014901161	-1.88193666934967	-0.02843925915658459	-2.469657421112061	0.1246997565031052	0.02324219420552251	0.4664922058582306	0.1000000014901161	0.1000000014901161	-0.1000000014901161	2.463396072387695	2.328678607940674	0.3354824781417849	0.09413624554872513	0.366727352142334	0.3884651660919189	0.1000000014901161	0.1000000014901161	-0.1000000014901161	
107	1.06	306.6204833984375	1027.511596679688	344.8438110351562	225.9462127685547	1030.314208984375	347.4574279785157	227.8792877197266	916.2059936523438	315.5443115234376	297.7274780273438	916.9855346679688	313.9634704589844	262.073974609375	1422.748168945312	502.7618408203126	91.05753326416016	1440.241333007812	447.5765991210939	435.4564208984375	1465.227294921875	441.7664184570313	253.7098083496094	1491.232543945312	369.6306457519532	91.14600372314453	647.3898315429688	398.1785888671876	101.3953399658203	545.171630859375	394.2026062011719	89.75856781005859	592.3447265625	422.5859375000001	85.1051025390625	591.5325317382812	459.7750549316407	434.3892822265625	668.79833984375	421.7426147460939	433.5843505859375	632.1972045898438	483.2017517089844	423.4232482910156	563.1242065429688	422.7400512695312	434.5133972167969	634.1295166015625	441.1676330566407	93.05226135253906	363.6100463867188	377.2934875488281	97.12030029296875	419.1551818847656	396.4468994140625	92.00579833984375	317.5508117675781	391.7838745117188	109.5457763671875	366.5256042480469	338.8721313476562	426.3966369628906	372.5274047851562	363.4887084960938	432.1158752441406	350.40869140625	405.1270141601562	423.9945373535156	285.2323303222656	412.82080078125	424.7186889648438	394.6346435546875	430.1466674804688	335.2773132324219	28.14618682861326	320.4137573242188	377.7738037109375	23.26055145263668	555.2940673828125	421.9488830566406	23.18812561035153	505.9488830566406	179.6438140869141	26.46355628967283	331.4947204589844	118.2078552246094	22.23428153991695	561.978515625	76.24324798583984	20.98788070678708	505.9500732421875	1498.242797851562	615.0164794921876	-1841.73583984375	1584.317504882812	704.5557861328126	-1909.35009765625	1627.412841796875	662.8701782226564	-1802.670776367188	1628.117919921875	658.2325439453126	-1821.229370117188	nan	nan	nan	nan	nan	nan	nan	nan	nan	nan	nan	nan	nan	nan	nan	140.1031494140625	903.899658203125	453.3567199707032	375.7042541503906	892.1832275390625	457.2872619628907	145.2841033935547	461.2293395996094	417.2903137207031	244.0458374023438	466.9606628417969	431.8940734863282	364.3136901855469	458.4268188476562	433.1265258789062	264.4336242675781	461.3180236816406	437.0775451660156	145.2839965820312	461.22900390625	417.2900085449219	364.3139953613281	458.427001953125	433.1270141601562	222.7590179443359	8.746742248535135	356.9421997070312	373.1568603515625	18.62061309814451	337.4993286132812	-0.8913176655769348	-0.7370464205741881	-1.482436418533325	0.4305441975593567	0.6213824152946472	0.4425751566886902	0.1000000014901161	0.1000000014901161	-0.1000000014901161	-0.0001041580617311411	-1.385834932327271	-0.02908172644674786	0.3783333599567413	0.02486495487391946	0.4605522751808167	0.1000000014901161	0.1000000014901161	-0.1000000014901161	-1.074278950691223	-0.6337865591049193	-1.399145364761353	0.4275305271148682	0.3360476791858673	0.3938106000423431	0.1000000014901161	0.1000000014901161	-0.1000000014901161	-0.07643948495388031	-1.897952079772949	-2.507353067398071	0.2534630298614502	0.9914505481719971	0.3359069228172303	0.1000000014901161	0.1000000014901161	-0.1000000014901161	2.463320255279541	-2.238738059997559	0.2033378034830092	0.09418242424726486	0.594957172870636	0.4050219655036927	0.1000000014901161	0.1000000014901161	-0.1000000014901161	-1.8820561170578	-0.02810414694249615	-2.469628572463989	0.1246983110904694	0.02322857454419133	0.4664744436740875	0.1000000014901161	0.1000000014901161	-0.1000000014901161	2.464084625244141	2.326500177383423	0.3349577188491822	0.09408821910619736	0.3667470216751099	0.3884868025779724	0.1000000014901161	0.1000000014901161	-0.1000000014901161	
108	1.07	306.6038513183594	1027.526977539062	344.8469238281251	225.9375610351562	1030.335083007812	347.4540405273439	227.8668518066406	916.216064453125	315.5556945800782	297.7085266113281	916.9981689453125	313.9857177734376	262.0821533203125	1422.794921875	502.8127441406251	91.06109619140625	1440.269165039062	447.623992919922	435.4474487304688	1465.270629882812	441.813446044922	253.7012329101562	1491.2421875	369.6600646972657	91.14997100830078	647.3892211914062	398.1690368652344	101.4027099609375	545.1770629882812	394.1966552734376	89.79088592529297	592.3385009765625	422.6029968261719	85.09685516357422	591.5511474609375	459.7761230468751	434.3818969726562	668.8023681640625	421.7281799316407	433.564208984375	632.1939697265625	483.1463317871094	423.4205627441406	563.1361083984375	422.7304687500001	434.5086364746094	634.1453247070312	441.1499633789062	93.04547119140625	363.631103515625	377.3150939941406	97.12800598144531	419.1549682617188	396.4684143066406	92.15340423583984	317.5311584472656	391.6849670410156	109.5770263671875	366.5259094238281	338.8682250976562	426.4154052734375	372.5143432617188	363.4898986816406	432.0925598144531	350.407958984375	405.111328125	424.0066528320312	285.2319030761719	412.8001708984375	424.718017578125	394.6468200683594	430.1409301757812	335.2814636230469	28.14342117309568	320.3975830078125	377.7810363769531	23.26340866088863	555.2849731445312	421.945068359375	23.1881065368652	505.9504699707031	179.6330871582031	26.46875572204588	331.5135192871094	118.2043380737305	22.25302505493161	561.9752807617188	76.24388122558594	21.00242233276364	505.9602661132812	1498.229736328125	614.6818237304689	-1841.838256835938	1584.311157226562	704.5003051757814	-1909.339477539062	1627.216430664062	662.8605957031251	-1802.6376953125	1628.088623046875	658.3283081054689	-1821.274169921875	nan	nan	nan	nan	nan	nan	nan	nan	nan	nan	nan	nan	nan	nan	nan	140.0859527587891	903.9242553710938	453.3473205566407	375.6788024902344	892.2010498046875	457.2810974121094	145.26806640625	461.246337890625	417.3148498535156	244.0301818847656	467.0316772460938	431.8947448730469	364.3056335449219	458.4262084960938	433.0983276367188	264.4244689941406	461.3120422363281	437.0256042480469	145.2680053710938	461.2460021972656	417.3150024414062	364.3059997558594	458.4259948730469	433.0979919433594	222.9896087646484	8.836501121520975	356.7593688964844	373.1819458007812	18.61790847778318	337.478271484375	-0.8911999464035034	-0.7372255325317382	-1.482500910758972	0.4305354952812195	0.6213895678520203	0.4425508081912994	0.1000000014901161	0.1000000014901161	-0.1000000014901161	-0.0001522020465927199	-1.385858774185181	-0.02908741682767876	0.3783358633518219	0.0248649790883064	0.4605443775653839	0.1000000014901161	0.1000000014901161	-0.1000000014901161	-1.074041128158569	-0.6340050697326659	-1.399266958236694	0.4275359213352203	0.3360474705696106	0.3938001692295074	0.1000000014901161	0.1000000014901161	-0.1000000014901161	-0.07635686546564102	-1.89820921421051	-2.507286071777344	0.2534491419792175	0.9914666414260864	0.3359112143516542	0.1000000014901161	0.1000000014901161	-0.1000000014901161	2.463364124298096	-2.238674640655518	0.2035961300134658	0.09419288486242294	0.5949601531028748	0.405022829771042	0.1000000014901161	0.1000000014901161	-0.1000000014901161	-1.882089734077454	-0.02819908969104275	-2.469630002975464	0.1246937736868858	0.02324140258133408	0.4664830565452576	0.1000000014901161	0.1000000014901161	-0.1000000014901161	2.463578462600708	2.328685760498047	0.334951549768448	0.09414099901914597	0.3667328953742981	0.3884743452072144	0.1000000014901161	0.1000000014901161	-0.1000000014901161	
109	1.08	306.6105651855469	1027.548095703125	344.8323974609376	225.9595336914062	1030.340454101562	347.4660644531251	227.8715057373047	916.2484741210938	315.5370178222657	297.6999206542969	917.00390625	313.9877624511719	262.0895690917969	1422.814331054688	502.847869873047	91.05490875244141	1440.310546875	447.6731567382813	435.4491271972656	1465.2958984375	441.8499450683595	253.7074737548828	1491.262329101562	369.6927795410157	91.12265014648438	647.4271850585938	398.1643066406251	101.3989562988281	545.1948852539062	394.1828613281251	89.78558349609375	592.3648071289062	422.6032104492189	85.09175872802734	591.5596313476562	459.7757873535157	434.3808898925781	668.8187866210938	421.7142944335939	433.5804443359375	632.20947265625	483.1330871582032	423.4085998535156	563.138916015625	422.6985168457032	434.4913024902344	634.1342163085938	441.1388549804689	93.06474304199219	363.62890625	377.2781066894531	97.12285614013672	419.1891784667969	396.4447631835938	92.06393432617188	317.5689392089844	391.7309265136719	109.5764083862305	366.5297241210938	338.8569030761719	426.4367980957031	372.5361022949219	363.4775390625	432.0881652832031	350.4063110351562	405.1060180664062	424.0144348144531	285.2443542480469	412.8212585449219	424.716796875	394.6378784179688	430.1289367675781	335.2835388183594	28.16918373107908	320.3956909179688	377.7832946777344	23.28372383117673	555.2803344726562	421.9544372558594	23.21104812622067	505.947021484375	179.6489562988281	26.48786163330076	331.5322265625	118.2069702148438	22.2727127075195	561.9760131835938	76.23896026611328	21.02347373962399	505.9596862792969	1498.266723632812	615.1248779296876	-1841.729614257812	1584.267211914062	704.4992675781251	-1909.328125	1627.38525390625	662.8568725585939	-1802.706176757812	1628.1162109375	658.2805175781251	-1821.216552734375	-3557.088623046875	994.5944213867188	673.3919677734376	-3552.315185546875	971.5202026367188	669.3347167968751	nan	nan	nan	nan	nan	nan	nan	nan	nan	140.0528564453125	903.9486083984375	453.3599548339844	375.6924438476562	892.2023315429688	457.2892150878907	145.2900543212891	461.2660522460938	417.2863464355469	244.0495147705078	467.0304260253906	431.8925170898439	364.2933959960938	458.4362182617188	433.0705871582031	264.4123229980469	461.324951171875	436.9981384277344	145.2899932861328	461.2659912109375	417.2860107421875	364.2929992675781	458.4360046386719	433.0710144042969	222.8582458496094	8.799406051635721	356.9132995605469	373.2015380859375	18.62874031066893	337.4898681640625	-0.8913557529449463	-0.7368598580360411	-1.482416987419128	0.4305318892002106	0.621395468711853	0.442533165216446	0.1000000014901161	0.1000000014901161	-0.1000000014901161	-0.0001064477619365789	-1.385846853256226	-0.02908166311681279	0.3783404529094696	0.0248879864811897	0.4605410397052765	0.1000000014901161	0.1000000014901161	-0.1000000014901161	-1.073933720588684	-0.6343470215797423	-1.399416089057922	0.427545040845871	0.3360522091388702	0.3938002288341522	0.1000000014901161	0.1000000014901161	-0.1000000014901161	-0.076554074883461	-1.898128986358643	-2.507382869720459	0.2534576952457428	0.9914835691452026	0.3359087407588959	0.1000000014901161	0.1000000014901161	-0.1000000014901161	2.463607788085938	-2.238429546356201	0.2032117843627929	0.09418001770973206	0.5949850082397461	0.4050178825855256	0.1000000014901161	0.1000000014901161	-0.1000000014901161	-1.881991028785706	-0.02815971523523316	-2.46973443031311	0.1246983036398888	0.0232613496482372	0.4664893448352814	0.1000000014901161	0.1000000014901161	-0.1000000014901161	2.463607788085938	2.327157020568848	0.3352073729038241	0.0941130742430687	0.3667616248130798	0.3884650468826294	0.1000000014901161	0.1000000014901161	-0.1000000014901161	
